<?xml version="1.0" encoding="utf-8"?>
<!-- Generator: Adobe Illustrator 24.3.0, SVG Export Plug-In . SVG Version: 6.00 Build 0)  -->
<svg version="1.1" id="Layer_1" xmlns="http://www.w3.org/2000/svg" xmlns:xlink="http://www.w3.org/1999/xlink" x="0px" y="0px"
	 viewBox="0 0 800 800" style="enable-background:new 0 0 800 800;" xml:space="preserve">
<style type="text/css">
	.st0{fill:#FFFFFF;}
</style>
<path class="st0" d="M733.3,115.7v568.6c0,13-5.2,25.5-14.4,34.7s-21.7,14.4-34.7,14.4H115.7c-13,0-25.5-5.2-34.7-14.4
	s-14.4-21.7-14.4-34.7V115.7c0-13,5.2-25.5,14.4-34.7s21.7-14.4,34.7-14.4h568.6c13,0,25.5,5.2,34.7,14.4S733.3,102.7,733.3,115.7
	L733.3,115.7z M262.7,321.6h-98v313.7h98V321.6z M271.6,213.7c0.1-7.4-1.4-14.8-4.1-21.6c-2.8-6.9-6.9-13.1-12.1-18.4
	c-5.2-5.3-11.4-9.5-18.2-12.4s-14.2-4.4-21.6-4.4h-1.8c-15.1,0-29.5,6-40.2,16.7s-16.7,25.1-16.7,40.2c0,15.1,6,29.5,16.7,40.2
	c10.7,10.7,25.1,16.7,40.2,16.7l0,0c7.4,0.2,14.8-1.1,21.7-3.8c6.9-2.7,13.2-6.7,18.6-11.8c5.4-5.1,9.7-11.2,12.7-18
	s4.6-14.1,4.8-21.5L271.6,213.7L271.6,213.7z M635.3,444.7c0-94.3-60-131-119.6-131c-19.5-1-38.9,3.2-56.4,12.1
	c-17.4,8.9-32.2,22.2-42.9,38.5h-2.7v-42.7h-92.2v313.7h98V468.4c-1.4-17.1,4-34,15-47.2c11-13.1,26.8-21.4,43.8-23h3.7
	c31.2,0,54.3,19.6,54.3,69v168h98L635.3,444.7z"/>
</svg>
