<?xml version="1.0" encoding="iso-8859-1"?>
<!-- Generator: Adobe Illustrator 24.3.0, SVG Export Plug-In . SVG Version: 6.00 Build 0)  -->
<svg version="1.1" id="Layer_2" xmlns="http://www.w3.org/2000/svg" xmlns:xlink="http://www.w3.org/1999/xlink" x="0px" y="0px"
	 viewBox="0 0 650.32 650" style="enable-background:new 0 0 650.32 650;" xml:space="preserve">
<radialGradient id="SVGID_1_" cx="408.197" cy="178.5319" r="127.2546" gradientUnits="userSpaceOnUse">
	<stop  offset="0.204" style="stop-color:#25553F"/>
	<stop  offset="1" style="stop-color:#477C4E"/>
</radialGradient>
<path style="fill:url(#SVGID_1_);" d="M459.798,74.957c-52.174,11.594-84.349,38.186-110.298,69.447
	c1.824-61.867,38.853-107.918,151.489-120c3.081,11.497-55.978,80.031-56.681,72.34c-5.221,1.841-66.366,67.59-71.489,84.936
	c-11.769,24.849-13.215,90.944-12.255,150.979c-6.537-50.454-17.468-87.34-45.277-105.021
	C339.153,176.885,365.631,126.117,459.798,74.957z"/>
<linearGradient id="SVGID_2_" gradientUnits="userSpaceOnUse" x1="412.7207" y1="155.8488" x2="504.6367" y2="63.6285">
	<stop  offset="0" style="stop-color:#59814C"/>
	<stop  offset="1" style="stop-color:#B8BC44"/>
</linearGradient>
<path style="fill:url(#SVGID_2_);" d="M372.82,181.681c2.379-9.59,36.721-54.903,65.707-80.138
	c12.674-10.677,24.147-21.305,33.868-31.862c11.041-12.54,20.472-27.804,28.596-45.277
	C509.305,90.162,496.858,163.216,372.82,181.681z"/>
<linearGradient id="SVGID_3_" gradientUnits="userSpaceOnUse" x1="213.5969" y1="78.6906" x2="309.6567" y2="175.1525">
	<stop  offset="0.0278" style="stop-color:#92AE61"/>
	<stop  offset="0.1918" style="stop-color:#8CAA5F"/>
	<stop  offset="0.4011" style="stop-color:#7D9E5A"/>
	<stop  offset="0.6349" style="stop-color:#628B52"/>
	<stop  offset="0.8851" style="stop-color:#3E7047"/>
	<stop  offset="0.9353" style="stop-color:#366A44"/>
</linearGradient>
<path style="fill:url(#SVGID_3_);" d="M318.522,190.191c20.403-71.343-16.834-111.83-102.383-118.723
	c-3.898,68.024,11.046,121.477,90.458,125.076c0.23,0.01,0.46,0.02,0.691,0.03c0.687-21.088-9.069-45.968-33.957-76.34
	C294.46,140.478,314.73,161.158,318.522,190.191z"/>
<linearGradient id="SVGID_4_" gradientUnits="userSpaceOnUse" x1="199.6778" y1="83.9286" x2="292.8195" y2="206.9734">
	<stop  offset="0.003" style="stop-color:#45714D"/>
	<stop  offset="0.4749" style="stop-color:#386045"/>
	<stop  offset="1" style="stop-color:#37553D"/>
</linearGradient>
<path style="fill:url(#SVGID_4_);" d="M216.139,71.468c13.12,15.461,30.381,52.905,33.574,61.66
	c7.915,28.34,36.552,50.698,56.883,63.417C243.969,200.574,202.777,142.362,216.139,71.468z"/>
<linearGradient id="SVGID_5_" gradientUnits="userSpaceOnUse" x1="270.8559" y1="126.2104" x2="323.6731" y2="126.2104">
	<stop  offset="0" style="stop-color:#94AC4A"/>
	<stop  offset="0.3575" style="stop-color:#8EA84B"/>
	<stop  offset="0.8129" style="stop-color:#7F9D50"/>
	<stop  offset="1" style="stop-color:#769752"/>
</linearGradient>
<path style="fill:url(#SVGID_5_);" d="M270.856,82.803c25.463,26.354,46.266,54.194,52.079,86.814
	C327.453,127.242,311.383,97.512,270.856,82.803z"/>
<path style="fill:#283325;" d="M304.394,306.86v63.757c33.606,10.805,63.757,27.316,82.722,62.295
	c0.001,0.002,0.003,0.003,0.004,0.002c60.801-4.469,111.809-26.274,129.859-106.423c0.121-0.535,0.181-1.088,0.181-1.637v-87.004
	c0,0,0.681-22.809-22.468-23.83c-23.149-1.021-27.574,24.511-27.574,24.511l-0.681,82.043
	C442.108,408.663,330.547,398.414,304.394,306.86z"/>
<path style="fill:#283325;" d="M293.602,432.915c7.567-4.364,79.836,83.724-8.969,130.859c-2.467,1.309-5.151,2.189-7.911,2.611
	c-39.599,6.054-70.75-6.954-87.818-51.736c-1.082-2.838-1.616-5.862-1.616-8.899v-7.421c-0.332-4.178-1.026-8.573-3.195-12.287
	c-3.061-5.244-8.976-10.754-20.295-10.574c-8.378,0.133-14.262,2.967-18.322,6.372c-5.121,4.294-8.132,10.598-8.598,17.265
	l-0.538,7.683c-4.514,45.34,74.828,158.951,187.102,93.14c1.373-0.805,2.659-1.755,3.851-2.809l32.635-28.847
	c2.444-2.16,4.445-4.773,5.894-7.695l15.266-30.791c1.727-3.483,2.625-7.318,2.625-11.205v-19.655c0-4.653-1.287-9.215-3.718-13.182
	l-18.1-29.531c-2.642-4.31-6.518-7.727-11.125-9.808l-28.879-13.042c-4.101-1.852-8.622-2.573-13.096-2.089L293.602,432.915z"/>
<linearGradient id="SVGID_6_" gradientUnits="userSpaceOnUse" x1="334.7783" y1="578.162" x2="283.1348" y2="388.7618">
	<stop  offset="0.0302" style="stop-color:#416549"/>
	<stop  offset="0.5687" style="stop-color:#91A951"/>
	<stop  offset="1" style="stop-color:#6D8F53"/>
</linearGradient>
<path style="fill:url(#SVGID_6_);" d="M258.974,371.714l-63.52,3.11l119.834,44.474l52.511,51.234l8.895,56.619l-14.768,31.466
	l-15.319,20.17l-19.988,19.07C428.285,541.295,414.011,389.34,258.974,371.714z"/>
<path style="fill:#3F6D49;" d="M137.24,330.048c6.643,33.888,27.742,74.043,105.785,91.745
	c128.511,11.064,162.34,104.81,82.383,176.851c0,0,105.192-64.681,19.745-173.787c-42.487-37.273-96.249-43.378-149.791-50.091
	L137.24,330.048z"/>
<linearGradient id="SVGID_7_" gradientUnits="userSpaceOnUse" x1="169.8135" y1="368.8413" x2="262.9916" y2="222.0636">
	<stop  offset="0.0302" style="stop-color:#DA9424"/>
	<stop  offset="0.5687" style="stop-color:#EDB931"/>
	<stop  offset="1" style="stop-color:#F3C532"/>
</linearGradient>
<path style="fill:url(#SVGID_7_);" d="M295.288,284.149c-75.173-93.907-179.648,67.562-36.314,87.565
	c-51.549,6.148-102.963,12.051-121.729-41.607c-3.523-39.687,1.708-76.775,43.348-103.055l43.801-18.307l72.851,35.064
	l11.404,31.489L295.288,284.149z"/>
<linearGradient id="SVGID_8_" gradientUnits="userSpaceOnUse" x1="212.6229" y1="216.5895" x2="403.6851" y2="348.3554">
	<stop  offset="0.0302" style="stop-color:#E39646"/>
	<stop  offset="0.5687" style="stop-color:#E5A73A"/>
	<stop  offset="1" style="stop-color:#F3D040"/>
</linearGradient>
<path style="fill:url(#SVGID_8_);" d="M410.778,379.724c-32.058-0.766-48.796-16.454-50.214-47.064
	c-6.964-52.757-20.141-91.946-45.277-105.021c-57.66-35.787-105.404-25.447-140.293,3.165c48.405-22.53,129.169,2.42,120.293,53.346
	c3.913,6.989,8.553,14.639,9.106,22.711C323.288,368.009,365.16,389.085,410.778,379.724"/>
</svg>
